<?xml version="1.0" encoding="UTF-8" standalone="no"?>
<svg
   xmlns:dc="http://purl.org/dc/elements/1.1/"
   xmlns:cc="http://creativecommons.org/ns#"
   xmlns:rdf="http://www.w3.org/1999/02/22-rdf-syntax-ns#"
   xmlns:svg="http://www.w3.org/2000/svg"
   xmlns="http://www.w3.org/2000/svg"
   xmlns:sodipodi="http://sodipodi.sourceforge.net/DTD/sodipodi-0.dtd"
   xmlns:inkscape="http://www.inkscape.org/namespaces/inkscape"
   version="1.1"
   id="Layer_1"
   x="0px"
   y="0px"
   viewBox="0 0 152.85001 150.7"
   xml:space="preserve"
   sodipodi:docname="Minerva_FinalLogo_NoText_RGB.svg"
   width="152.85001"
   height="150.7"
   inkscape:version="1.0 (4035a4fb49, 2020-05-01)"><metadata
   id="metadata965"><rdf:RDF><cc:Work
       rdf:about=""><dc:format>image/svg+xml</dc:format><dc:type
         rdf:resource="http://purl.org/dc/dcmitype/StillImage" /><dc:title /></cc:Work></rdf:RDF></metadata><defs
   id="defs963" /><sodipodi:namedview
   inkscape:document-rotation="0"
   pagecolor="#ffffff"
   bordercolor="#666666"
   borderopacity="1"
   objecttolerance="10"
   gridtolerance="10"
   guidetolerance="10"
   inkscape:pageopacity="0"
   inkscape:pageshadow="2"
   inkscape:window-width="2081"
   inkscape:window-height="1177"
   id="namedview961"
   showgrid="false"
   inkscape:zoom="0.95416667"
   inkscape:cx="182.79637"
   inkscape:cy="87.446419"
   inkscape:window-x="10"
   inkscape:window-y="27"
   inkscape:window-maximized="0"
   inkscape:current-layer="Layer_1" />
<style
   type="text/css"
   id="style900">
	.st0{fill:#545859;}
	.st1{fill:#00A5DF;}
	.st2{fill:#963CBD;}
	.st3{fill:#004EA8;}
	.st4{fill:#93C90F;}
	.st5{fill:#007749;}
	.st6{fill:#D00070;}
	.st7{fill:#890C58;}
	.st8{fill:#FF6720;}
	.st9{fill:#00778B;}
	.st10{fill:#AB2328;}
</style>

<g
   id="g958"
   transform="matrix(1,0,0,1.0142668,-8.47,-6.2174555)">
	<polygon
   class="st1"
   points="95.12,101.74 84.9,125.15 74.67,101.74 61.02,109.33 54.73,141.49 66.91,150.34 71.24,125.99 84.9,156.83 98.55,125.99 102.88,150.34 115.07,141.49 108.77,109.33 "
   id="polygon918" />
	<polygon
   class="st1"
   points="103.52,82.52 98.18,94.75 105.77,94 "
   id="polygon920" />
	<polygon
   class="st1"
   points="66.27,82.52 64.02,94 71.62,94.75 "
   id="polygon922" />
	<polygon
   class="st2"
   points="127.78,104.76 161.32,101.3 136.22,78.79 160.71,82.19 156.07,67.87 123.52,63.92 112.09,74.55 131.19,91.51 105.77,94 108.77,109.33 137.41,125.25 149.6,116.4 "
   id="polygon924" />
	<polygon
   class="st2"
   points="84.9,96.05 95.12,101.74 98.18,94.75 "
   id="polygon926" />
	<polygon
   class="st2"
   points="96.41,60.63 106.39,69.49 108.02,62.04 "
   id="polygon928" />
	<polygon
   class="st3"
   points="105.77,94 98.18,94.75 95.12,101.74 108.77,109.33 "
   id="polygon930" />
	<polygon
   class="st4"
   points="91.48,50.01 113.51,37.09 108.02,62.04 123.52,63.92 147.52,41.6 142.87,27.28 125.05,44.43 132.13,11.46 102.96,28.38 113.77,6.13 98.71,6.13 84.9,35.85 "
   id="polygon932" />
	<polygon
   class="st4"
   points="78.32,50.01 73.39,60.63 84.9,53.87 "
   id="polygon934" />
	<polygon
   class="st4"
   points="106.39,69.49 103.52,82.52 112.09,74.55 "
   id="polygon936" />
	<polygon
   class="st5"
   points="108.02,62.04 106.39,69.49 112.09,74.55 123.52,63.92 "
   id="polygon938" />
	<polygon
   class="st6"
   points="96.41,60.63 91.48,50.01 84.9,53.87 "
   id="polygon940" />
	<polygon
   class="st6"
   points="66.27,82.52 63.41,69.49 57.7,74.55 "
   id="polygon942" />
	<polygon
   class="st6"
   points="61.77,62.04 56.28,37.09 78.32,50.01 84.9,35.85 71.09,6.13 56.03,6.13 66.83,28.38 37.66,11.46 44.74,44.43 26.92,27.28 22.27,41.6 46.27,63.92 "
   id="polygon944" />
	<polygon
   class="st7"
   points="78.32,50.01 84.9,53.87 91.48,50.01 84.9,35.85 "
   id="polygon946" />
	<polygon
   class="st8"
   points="84.9,96.05 71.62,94.75 74.67,101.74 "
   id="polygon948" />
	<polygon
   class="st8"
   points="73.39,60.63 61.77,62.04 63.41,69.49 "
   id="polygon950" />
	<polygon
   class="st8"
   points="64.02,94 38.6,91.51 57.7,74.55 46.27,63.92 13.69,67.87 9.08,82.19 33.58,78.79 8.47,101.3 42.02,104.76 20.2,116.4 32.38,125.25 61.02,109.33 "
   id="polygon952" />
	<polygon
   class="st9"
   points="74.67,101.74 71.62,94.75 64.02,94 61.02,109.33 "
   id="polygon954" />
	<polygon
   class="st10"
   points="57.7,74.55 63.41,69.49 61.77,62.04 46.27,63.92 "
   id="polygon956" />
</g>
</svg>
